<?xml version="1.0" encoding="iso-8859-1"?>
<!-- Generator: Adobe Illustrator 19.0.0, SVG Export Plug-In . SVG Version: 6.00 Build 0)  -->
<svg version="1.1" id="Capa_1" xmlns="http://www.w3.org/2000/svg" xmlns:xlink="http://www.w3.org/1999/xlink" x="0px" y="0px"
	 viewBox="0 0 502.664 502.664" style="enable-background:new 0 0 502.664 502.664;" xml:space="preserve">
<g>
	<g>
		<g>
			<path style="fill:#481C18;" d="M328.599,190.297V81.969H36.509v312.388h137.535v108.307h292.112V190.297H328.599z M65.91,365.085
				V119.567h233.331v245.519H65.91z M436.474,473.004H203.79v-78.647h124.809v-7.722h85.83v-18.767h-85.83v-34.621h85.83V314.48
				h-85.83v-27.287h85.83v-18.788h-85.83v-40.186h107.875C436.474,228.219,436.474,473.004,436.474,473.004z"/>
			<rect x="89.141" y="160.034" style="fill:#481C18;" width="187.709" height="18.853"/>
			<rect x="89.141" y="206.152" style="fill:#481C18;" width="187.709" height="18.767"/>
			<rect x="89.141" y="259.54" style="fill:#481C18;" width="187.709" height="18.767"/>
			<path style="fill:#481C18;" d="M270.379,34.556c54.013,0,99.722,34.794,116.245,83.177h-35.355l53.668,53.711l53.668-53.711
				h-35.851v0.022C405.067,50.066,343.633,0,270.401,0c-50.583,0-95.515,23.944-124.334,61.045h48.189
				C215.179,44.479,241.604,34.556,270.379,34.556z"/>
		</g>
	</g>
</g>
</svg>
