<?xml version="1.0" encoding="utf-8"?>
<!-- Generator: Adobe Illustrator 16.0.0, SVG Export Plug-In . SVG Version: 6.00 Build 0)  -->
<!DOCTYPE svg PUBLIC "-//W3C//DTD SVG 1.1//EN" "http://www.w3.org/Graphics/SVG/1.1/DTD/svg11.dtd">
<svg version="1.1" id="Layer_1" xmlns="http://www.w3.org/2000/svg" xmlns:xlink="http://www.w3.org/1999/xlink" x="0px" y="0px"
	 viewBox="0 0 24 24" enable-background="new 0 0 24 24" xml:space="preserve">
<path fill="#481C18" d="M22.967,6.341c-0.001-0.003-0.001-0.004-0.002-0.006c-0.032-0.201-0.098-0.391-0.194-0.566
	c-0.146-0.262-0.347-0.476-0.592-0.633c-0.005-0.005-0.046-0.03-0.051-0.034c-0.123-0.075-0.262-0.137-0.419-0.185l-6.793-1.701
	c-0.834-0.205-1.968,0.051-2.61,0.552l-8.213,6.387c-0.592,0.46-1.244,1.38-1.483,2.097L1.096,16.79
	c-0.162,0.485-0.118,0.997,0.125,1.439c0.241,0.44,0.649,0.752,1.147,0.875l6.705,1.677c0.197,0.05,0.413,0.074,0.64,0.074
	c0.558,0,1.15-0.147,1.62-0.4c0.113-0.059,0.229-0.132,0.352-0.226l8.211-6.387c0.592-0.461,1.244-1.38,1.483-2.096l1.514-4.541
	C23.004,6.871,23.028,6.586,22.967,6.341z M9.985,19.004c-0.063,0.191-0.301,0.321-0.502,0.274l-6.705-1.675
	c-0.072-0.019-0.132-0.062-0.163-0.122c-0.032-0.058-0.038-0.13-0.015-0.201l1.516-4.541c0.054-0.162,0.231-0.285,0.411-0.285
	c0.03,0,0.061,0.004,0.09,0.011l6.706,1.677c0.073,0.019,0.131,0.061,0.164,0.119c0.03,0.058,0.035,0.13,0.011,0.203L9.985,19.004z
	 M5.462,11.08l7.83-6.09c0.223-0.173,0.653-0.298,1.021-0.298c0.098,0,0.192,0.01,0.265,0.027l6.232,1.558l-7.827,6.091
	c-0.282,0.218-0.931,0.354-1.285,0.271L5.462,11.08z M19.944,11.258c-0.144,0.432-0.603,1.081-0.963,1.362l-7.068,5.496l1.056-3.164
	c0.144-0.432,0.604-1.083,0.965-1.362L21,8.095L19.944,11.258z"/>
</svg>
