<?xml version="1.0" encoding="utf-8"?>
<!-- Generator: Adobe Illustrator 16.0.0, SVG Export Plug-In . SVG Version: 6.00 Build 0)  -->
<!DOCTYPE svg PUBLIC "-//W3C//DTD SVG 1.1//EN" "http://www.w3.org/Graphics/SVG/1.1/DTD/svg11.dtd">
<svg version="1.1" id="Layer_1" xmlns="http://www.w3.org/2000/svg" xmlns:xlink="http://www.w3.org/1999/xlink" x="0px" y="0px"
	 viewBox="5 5 20 20" enable-background="new 0 0 24 24" xml:space="preserve">
<path fill="#481C18" d="M1,1h3.667v3.667H1V1z M7.111,1h3.667v3.667H7.111V1z M19.333,1H23v3.667h-3.667V1z M13.222,1h3.667v3.667h-3.667V1z
	 M1,7.111h3.667v3.666H1V7.111z M1,13.223h3.667v3.666H1V13.223z M1,19.333h3.667V23H1V19.333z M7.111,7.111h3.667v3.666H7.111
	V7.111z M19.333,7.111H23v3.666h-3.667V7.111z M13.222,7.111h3.667v3.666h-3.667V7.111z M7.111,13.223h3.667v3.666H7.111V13.223z
	 M19.333,13.223H23v3.666h-3.667V13.223z M13.222,13.223h3.667v3.666h-3.667V13.223z M7.111,19.333h3.667V23H7.111V19.333z
	 M19.333,19.333H23V23h-3.667V19.333z M13.222,19.333h3.667V23h-3.667V19.333z"/>
</svg>
