<?xml version="1.0" encoding="utf-8"?>
<!-- Generator: Adobe Illustrator 16.0.0, SVG Export Plug-In . SVG Version: 6.00 Build 0)  -->
<!DOCTYPE svg PUBLIC "-//W3C//DTD SVG 1.1//EN" "http://www.w3.org/Graphics/SVG/1.1/DTD/svg11.dtd">
<svg version="1.1" id="Layer_1" xmlns="http://www.w3.org/2000/svg" xmlns:xlink="http://www.w3.org/1999/xlink" x="0px" y="0px"
   viewBox="0 0 25 25" enable-background="new 0 0 25 25" xml:space="preserve">

 <g>
  <title>Layer 1</title>
  <g>
   <g>
    <path d="m12.700001,16.900011c-3.799996,0 -7.000001,-2.700003 -8.600003,-4.299998c-0.599999,-0.599999 -0.599999,-1.700004 0,-2.300006c1.6,-1.600007 4.800004,-4.300007 8.600003,-4.300007s7,2.700001 8.6,4.300007c0.6,0.600002 0.6,1.700001 0,2.300006c-1.6,1.599998 -4.800001,4.299998 -8.6,4.299998zm0,-10.000013c-3.599998,0 -6.7,2.800007 -7.900001,4.000012c-0.3,0.299998 -0.3,0.700004 0,0.900001c1.2,1.200005 4.300001,4 7.900001,4s6.700001,-2.799995 7.9,-4c0.300001,-0.299995 0.300001,-0.7 0,-0.900001c-1.199999,-1.200006 -4.299999,-4.000012 -7.9,-4.000012z" fill="#481C18"/>
   </g>
   <g>
    <path d="m12.700001,13.900009c-1.400002,0 -2.5,-1.099999 -2.5,-2.5s1.099998,-2.50001 2.5,-2.50001s2.5,1.100006 2.5,2.50001s-1.099998,2.5 -2.5,2.5zm0,-4.000004c-0.799996,0 -1.5,0.700006 -1.5,1.500004s0.700004,1.5 1.5,1.5s1.5,-0.700001 1.5,-1.5s-0.700002,-1.500004 -1.5,-1.500004z" fill="#481C18"/>
   </g>
  </g>
  <rect fill="#481C18" stroke="#481C18" stroke-width="5" stroke-dasharray="null" stroke-linejoin="null" stroke-linecap="null" x="19.15" y="13.85" width="3.3" height="3.8" id="svg_7"/>
  <text xml:space="preserve" text-anchor="middle" font-family="serif" font-size="9" id="svg_3" y="18.55" x="20.65" opacity="0.5" stroke-linecap="null" stroke-linejoin="null" stroke-dasharray="null" stroke-width="0" stroke="rgba(255,255,255,1)" fill="rgba(255,255,255,1)">L</text>
 </g>
</svg>