<svg id="Layer_1" data-name="Layer 1" xmlns="http://www.w3.org/2000/svg" viewBox="0 0 308.75 83.86"><defs><style>.cls-1{fill:#fff}</style></defs><title>mcb--white</title><path class="cls-1" d="M15.5 0l27.747 64.111L71.1 0l15.5 80.721h-8.71l-9.829-51.654h-.2L43.247 83.86l-24.51-54.793h-.2L8.71 80.721H0zM157.085 21.067a32.685 32.685 0 0 0-23.3-10.129c-17.015 0-30.79 14.792-30.79 31.6s13.876 31.6 30.992 31.6c8.609 0 17.015-4.051 23.092-10.128v10.533a39.327 39.327 0 0 1-22.779 7.494c-21.573 0-39.8-17.521-39.8-39.2a39.94 39.94 0 0 1 39.8-39.8 36.868 36.868 0 0 1 22.785 7.493v10.537zM174 4.355h12.559c13.876 0 25.523 5.064 25.523 20.662 0 6.178-2.329 11.445-7.495 14.888 9.115 2.228 14.483 10.432 14.483 19.548 0 15.192-12.255 21.269-27.346 21.269H174V4.355zm8.5 33.626h3.241c9.622 0 17.825-1.114 17.825-12.964 0-11.546-7.292-12.762-17.724-12.762H182.5v25.726zm0 34.84h8.508c9.521 0 19.547-2.33 19.547-13.977 0-11.85-11.343-13.572-20.661-13.572H182.5v27.549zM253.87 43.229a3.739 3.739 0 1 1 2.649-1.09 3.8 3.8 0 0 1-2.649 1.09z"/><path class="cls-1" d="M267.689 48.68A3.751 3.751 0 0 1 270.18 44a3.741 3.741 0 0 1 4.676 2.476v.014a3.736 3.736 0 0 1-2.478 4.667h-.011a3.443 3.443 0 0 1-1.09.17 3.762 3.762 0 0 1-3.588-2.647zm-8.149 1.39a3.736 3.736 0 0 1-1.747-4.986l.007-.014a3.728 3.728 0 0 1 4.972-1.752l.028.013a3.737 3.737 0 0 1 1.746 4.988l-.006.012a3.744 3.744 0 0 1-3.37 2.12 3.629 3.629 0 0 1-1.63-.382zm17.3-5.979a3.756 3.756 0 0 1-.21-5.3 3.756 3.756 0 0 1 5.3-.21 3.745 3.745 0 0 1 .21 5.291 3.72 3.72 0 0 1-2.76 1.21 3.766 3.766 0 0 1-2.54-.992zm19.24-3.05a3.731 3.731 0 0 1-1.351-5.1l.011-.02a3.731 3.731 0 0 1 5.1-1.351l.018.011h.011a3.748 3.748 0 0 1 1.33 5.13 3.754 3.754 0 0 1-3.23 1.85 3.691 3.691 0 0 1-1.89-.521zm-11.81-4.531a3.744 3.744 0 0 1 3.1-4.29h.01a3.743 3.743 0 0 1 4.29 3.1 3.755 3.755 0 0 1-3.11 4.3 3.948 3.948 0 0 1-.59.04 3.746 3.746 0 0 1-3.7-3.15z" id="_Group_" data-name="Group"/><path class="cls-1" d="M305 49.16a3.75 3.75 0 1 1 3.75-3.75 3.756 3.756 0 0 1-3.75 3.75z"/></svg>