<?xml version="1.0" encoding="utf-8"?>
<!-- Generator: Adobe Illustrator 16.0.0, SVG Export Plug-In . SVG Version: 6.00 Build 0)  -->
<!DOCTYPE svg PUBLIC "-//W3C//DTD SVG 1.1//EN" "http://www.w3.org/Graphics/SVG/1.1/DTD/svg11.dtd">
<svg version="1.1" id="Layer_1" xmlns="http://www.w3.org/2000/svg" xmlns:xlink="http://www.w3.org/1999/xlink" x="0px" y="0px"
	 viewBox="0 0 24 24" enable-background="new 0 0 24 24" xml:space="preserve">
<g>
	<path fill="#481C18" d="M23.99,14.525c0-0.009,0.005-0.016,0.005-0.024c0-0.002-0.001-0.004-0.001-0.007
		c0-0.063-0.013-0.125-0.037-0.185c-0.023-0.057-0.059-0.107-0.101-0.151c-0.002-0.003-0.003-0.007-0.006-0.01h0
		c0-0.001,0-0.001-0.001-0.002l-2.989-3.001c-0.196-0.197-0.512-0.196-0.708-0.002c-0.195,0.195-0.196,0.512-0.001,0.707l2.142,2.15
		h-7.294V7.208l2.15,2.149c0.098,0.098,0.226,0.146,0.354,0.146s0.256-0.049,0.354-0.146c0.195-0.195,0.195-0.512,0-0.707
		l-3.003-3.002c-0.046-0.047-0.101-0.083-0.162-0.108c-0.061-0.025-0.125-0.039-0.192-0.039h0c-0.067,0-0.132,0.014-0.193,0.039
		s-0.115,0.063-0.161,0.108l0,0l-2.99,3.003c-0.195,0.195-0.194,0.512,0.002,0.707c0.194,0.194,0.512,0.194,0.707-0.002l2.135-2.145
		v6.789H7.212l2.141-2.15c0.195-0.195,0.194-0.512-0.002-0.707c-0.195-0.194-0.513-0.195-0.707,0.002l-2.988,3.001
		c0,0.001,0,0.001-0.001,0.002h0c-0.003,0.003-0.003,0.007-0.006,0.01c-0.042,0.044-0.077,0.095-0.101,0.152
		c-0.024,0.059-0.037,0.121-0.037,0.184c0,0.002-0.001,0.005-0.001,0.007c0,0.009,0.004,0.017,0.005,0.024
		c0.003,0.057,0.012,0.113,0.033,0.166c0.024,0.058,0.06,0.109,0.102,0.154c0.002,0.002,0.003,0.006,0.005,0.008h0
		c0,0.001,0,0.001,0.001,0.002l2.988,3.003c0.098,0.099,0.226,0.147,0.354,0.147c0.127,0,0.255-0.049,0.353-0.146
		c0.196-0.194,0.197-0.512,0.002-0.707l-2.141-2.152h6.785v7.287l-2.135-2.146c-0.195-0.197-0.512-0.197-0.707-0.002
		c-0.196,0.194-0.197,0.512-0.002,0.707l2.99,3.005l0,0c0.046,0.046,0.101,0.083,0.161,0.108S14.43,24,14.497,24h0
		c0.067,0,0.132-0.014,0.192-0.039c0.061-0.025,0.116-0.063,0.162-0.108l3.003-3.004c0.195-0.195,0.195-0.512,0-0.707
		s-0.512-0.195-0.707,0l-2.15,2.151v-7.292h7.295l-2.142,2.152c-0.195,0.195-0.194,0.512,0.002,0.707
		c0.097,0.097,0.225,0.146,0.353,0.146c0.128,0,0.257-0.049,0.354-0.147l2.989-3.003c0-0.001,0-0.001,0.001-0.002h0
		c0.002-0.002,0.003-0.006,0.005-0.008c0.042-0.045,0.078-0.097,0.102-0.154C23.979,14.638,23.987,14.581,23.99,14.525z"/>
	<path fill="#481C18" d="M7.417,9.614c0.217-0.497,0.445-0.996,0.675-1.493C8.37,7.975,8.648,7.826,8.926,7.678l0.906-0.481
		c0.297-0.175,1.201-0.705,1.173-1.535c-0.02-0.589-0.492-1.106-1.434-1.577c-2.281-1.205-4.563-2.41-6.888-3.629
		C1.995,0.149,1.464,0,1.062,0C0.546,0,0.287,0.24,0.16,0.441c-0.276,0.438-0.189,1.073,0.29,2.074L1.042,3.66
		c1.006,1.942,2.011,3.883,3.001,5.805c0.512,1.04,1.07,1.546,1.708,1.546C6.345,11.011,6.882,10.568,7.417,9.614z M4.937,9.016
		c-0.995-1.932-2-3.872-3.006-5.815L1.345,2.07C0.957,1.259,1.003,0.997,1.053,0.997c0.003,0,0.006,0.001,0.009,0.003
		c0.176,0,0.529,0.064,1.186,0.354c2.294,1.204,4.576,2.409,6.867,3.619c0.696,0.348,0.888,0.617,0.891,0.721
		c0.003,0.088-0.137,0.32-0.659,0.627L8.455,6.796C8.129,6.97,7.804,7.144,7.478,7.313C7.38,7.364,7.302,7.446,7.255,7.547
		C6.999,8.102,6.743,8.659,6.523,9.169c-0.452,0.801-0.722,0.842-0.772,0.842C5.718,10.011,5.413,9.982,4.937,9.016z"/>
</g>
</svg>
